<svg width="97" height="72" viewBox="0 0 97 72" fill="none" xmlns="http://www.w3.org/2000/svg">
<path d="M95.9654 5.97591C94.9381 5.47366 94.496 6.43077 93.8954 6.91663C93.6898 7.07338 93.5157 7.27699 93.3424 7.46499C91.8409 9.06471 90.0865 10.1156 87.7946 9.99006C84.4445 9.80207 81.5832 10.8527 79.0546 13.4087C78.5172 10.2567 76.7315 8.37395 74.0132 7.16712C72.5908 6.53988 71.1527 5.91213 70.1567 4.54779C69.4614 3.57581 69.2717 2.49345 68.924 1.42697C68.703 0.78437 68.4811 0.125375 67.7383 0.0152441C66.9324 -0.110254 66.6158 0.563851 66.3002 1.12911C65.0357 3.43469 64.5458 5.97514 64.5936 8.54683C64.7045 14.3344 67.1539 18.9445 72.0221 22.2228C72.5751 22.5993 72.7171 22.9756 72.5438 23.5244C72.2118 24.6539 71.8167 25.7514 71.469 26.8809C71.2477 27.6024 70.9152 27.7591 70.1411 27.4456C67.4703 26.3325 65.1623 24.6852 63.1234 22.6938C59.662 19.353 56.5329 15.6675 52.6289 12.7815C51.7255 12.115 50.7976 11.482 49.8472 10.8839C45.8644 7.026 50.369 3.85754 51.4119 3.48156C52.5024 3.08919 51.7914 1.74072 48.2664 1.75634C44.7419 1.77197 41.5175 2.94806 37.4086 4.51654C36.8078 4.75217 36.1759 4.92454 35.5276 5.06515C31.7977 4.35928 27.9256 4.20254 23.8793 4.65715C16.2611 5.50363 10.1767 9.09544 5.70402 15.2277C0.330606 22.6001 -0.934179 30.9744 0.614836 39.7101C2.24268 48.9158 6.95237 56.5382 14.1911 62.4981C21.6984 68.6765 30.344 71.7038 40.2057 71.1234C46.1956 70.7787 52.8657 69.9791 60.3887 63.6268C62.2853 64.5675 64.2765 64.9443 67.5799 65.2265C70.1246 65.4622 72.5743 65.101 74.471 64.7094C77.4425 64.0822 77.2371 61.3374 76.162 60.8359C67.4541 56.79 69.3656 58.4366 67.6274 57.1035C71.4783 52.5589 77.0293 47.8597 80.1236 35.1302C80.8656 32.0779 81.3303 28.6675 81.3303 25.4704C81.3303 24.8301 81.4723 24.5141 82.2628 24.4354C84.4437 24.1842 86.5614 23.589 88.5056 22.522C94.1478 19.448 96.424 14.3981 96.9614 8.3445C97.0402 7.41939 96.9457 6.46177 95.9654 5.97591ZM46.797 60.4584C38.3568 53.8408 34.2636 51.6602 32.5726 51.7544C30.9923 51.8487 31.2765 53.6522 31.6242 54.8283C31.9875 55.9891 32.4622 56.7887 33.1257 57.808C33.584 58.4827 33.9003 59.4859 32.6676 60.2394C29.9493 61.917 25.2235 59.6746 25.0019 59.5645C19.5019 56.3338 14.9026 52.0681 11.6623 46.2343C8.53322 40.6191 6.71538 34.5975 6.41549 28.1671C6.33641 26.6148 6.79498 26.0651 8.34348 25.7834C10.3821 25.4066 12.4842 25.328 14.5231 25.6259C23.1365 26.8809 30.4698 30.7232 36.6181 36.8081C40.1269 40.2736 42.782 44.4145 45.5168 48.4605C48.4248 52.7576 51.5542 56.8512 55.537 60.2074C56.9437 61.3835 58.0655 62.2776 59.1406 62.9366C55.9003 63.2969 50.4948 63.3756 46.797 60.4584ZM50.8791 34.2013C51.0129 33.6606 51.5007 33.2644 52.0915 33.2644C52.2372 33.2648 52.3817 33.2912 52.518 33.3425C52.6921 33.4055 52.85 33.4998 52.9766 33.6404C53.1976 33.8604 53.3242 34.1739 53.3242 34.503C53.3242 35.1932 52.7712 35.7418 52.0759 35.7418C51.7824 35.7445 51.4978 35.6415 51.2743 35.4517C51.0508 35.2619 50.9035 34.9981 50.8594 34.7086C50.832 34.5399 50.8387 34.3674 50.8791 34.2013ZM63.0001 41.0947C62.331 41.3498 61.665 41.5501 61.0213 41.5762C59.8199 41.6387 58.5084 41.1526 57.7975 40.5566C56.6913 39.6315 55.9011 39.1144 55.5691 37.4983C55.4268 36.8081 55.5056 35.7418 55.6322 35.1302C55.9167 33.8127 55.6004 32.9658 54.6684 32.1974C53.9099 31.5702 52.9453 31.3978 51.8867 31.3978C51.4915 31.3978 51.1282 31.2254 50.8594 31.0843C50.4167 30.8651 50.0534 30.3159 50.4011 29.6413C50.512 29.4221 51.0494 28.8886 51.1759 28.7948C52.6138 27.9791 54.2737 28.2457 55.8063 28.8573C57.2287 29.4377 58.3038 30.5039 59.8525 32.0094C61.4329 33.8284 61.7174 34.3306 62.6186 35.695C63.3301 36.7612 63.9779 37.8594 64.4205 39.1136C64.6457 39.7696 64.4387 40.3276 63.8194 40.7213C63.5676 40.8814 63.2779 40.9887 63.0001 41.0947Z" fill="#4D6BFE"/>
</svg>
