<svg width="62" height="72" viewBox="0 0 62 72" fill="none" xmlns="http://www.w3.org/2000/svg">
<path fill-rule="evenodd" clip-rule="evenodd" d="M52.8038 0V21.2712H61.3799V51.9023H52.8038V71.0172L32.221 52.6642V70.8775H29.0336V52.6642L8.45051 71.0172V51.9023H0V21.2712H8.45048V4.99776e-06L29.0336 19.199V0.553029H32.221V19.199L52.8038 0ZM26.5821 21.2712L11.6379 7.3318V21.271L26.5821 21.2712ZM26.5389 24.4586H3.18739V48.715H8.44594V41.0916L26.5389 24.4586ZM11.6379 42.4909V63.9047L29.0336 48.3938V26.4953L11.6379 42.4909ZM32.221 48.3938L49.6164 63.9047V42.4909L32.221 26.4954V48.3938ZM52.8038 48.7149H58.1925V24.4586H34.715L52.8038 41.0917V48.7149ZM34.6723 21.2712L49.6164 7.33185V21.271L34.6723 21.2712Z" fill="#21B8CD"/>
</svg>
